<svg xmlns="http://www.w3.org/2000/svg" width="11.41" height="11.087" viewBox="0 0 11.41 11.087">
  <g id="Group_63" data-name="Group 63" transform="translate(-246.655 -3617.228)">
    <path id="Path_21" data-name="Path 21" d="M249.033,3623.476c-1.233.327-1.8.027-2.284-1.381a.814.814,0,0,1,.389-1.148,6.426,6.426,0,0,1,1.085-.545.793.793,0,0,1,.863.186c.3.264.592.54.866.832a7.2,7.2,0,0,0,1.707,1.48.413.413,0,0,0,.331.043.381.381,0,0,0,.208-.431,6.15,6.15,0,0,0-.756-2.006c-.222-.386-.414-.789-.611-1.188a.845.845,0,0,1,.118-.974,9.34,9.34,0,0,1,1.077-.99.636.636,0,0,1,.747-.009,2.953,2.953,0,0,1,1.067,1,.893.893,0,0,1,.056.933c-.346.691-.7,1.379-1.019,2.084a9.987,9.987,0,0,0-.349,1.088.422.422,0,0,0,.178.5c.163.134.276.016.394-.045a5.286,5.286,0,0,0,1.475-1.2c.287-.317.586-.624.9-.914a1.123,1.123,0,0,1,1.14-.268,2.71,2.71,0,0,1,1.276.8.663.663,0,0,1,.116.72,7.026,7.026,0,0,1-.664,1.239.982.982,0,0,1-1.076.358c-.66-.132-1.317-.287-1.983-.372a5.735,5.735,0,0,0-1.221.033.275.275,0,0,0-.142.479,3.487,3.487,0,0,0,.671.556c.455.264.938.479,1.408.719a8.564,8.564,0,0,1,.887.475,1.391,1.391,0,0,1,.485,1.657,3.583,3.583,0,0,1-.1.367c-.217.634-.529.8-1.2.748-1.311-.108-1.646-.988-1.822-2.022-.122-.723-.318-1.435-.5-2.147-.041-.163-.113-.311-.349-.315s-.313.122-.39.3a7.477,7.477,0,0,0-.484,2.2,5.151,5.151,0,0,1-.078.595,1.675,1.675,0,0,1-1.709,1.4c-.987.031-1.131-.079-1.37-1.045a1.45,1.45,0,0,1,.8-1.9c.386-.221.817-.365,1.2-.6a14.344,14.344,0,0,0,1.385-.964c.28-.219.207-.449-.134-.539a3.573,3.573,0,0,0-.454-.091,2.822,2.822,0,0,0-.355,0A13.021,13.021,0,0,0,249.033,3623.476Z" fill="#d1955b"/>
  </g>
</svg>
